<?xml version="1.0" encoding="UTF-8" standalone="no"?>
<svg
   width="155.18279"
   height="151.63553"
   viewBox="0 0 155.18279 151.63553"
   fill="none"
   version="1.1"
   id="svg2"
   xmlns="http://www.w3.org/2000/svg"
   xmlns:svg="http://www.w3.org/2000/svg">
  <g
     clip-path="url(#clip0)"
     id="g2"
     transform="translate(-0.87311396,-2.0298235)">
    <path
       d="m 4.778242,85.62525 c 3.178737,1.826826 6.774225,2.813827 10.444313,2.866174 10.355551,0.376543 20.888626,0.504248 31.066653,0.628667 l 7.725065,0.0966 c 3.3861,0.04729 6.772201,0.0392 10.567719,0.02276 1.339521,0 2.728606,-0.0081 4.188246,-0.0099 0,0.504248 0,0.996864 -0.01163,1.473295 -0.01796,2.020028 -0.03439,3.928535 0.03136,5.810994 0.110004,3.174186 0.215204,6.34963 0.315598,9.52534 0.341898,10.64004 0.696945,21.64499 1.375683,32.46079 0.32546,3.90451 1.688245,7.64971 3.944972,10.85879 0.798856,1.26441 1.893586,2.31641 3.188852,3.06494 1.297036,0.75106 2.756675,1.1759 4.253994,1.24165 0.134787,0 0.271344,0 0.407648,-0.0126 1.560034,-0.15173 3.054065,-0.70554 4.337951,-1.60075 1.283633,-0.89267 2.314384,-2.10145 2.993121,-3.50748 1.998786,-3.66175 3.063928,-7.75339 3.101861,-11.91837 0,-10.19092 -0.282723,-20.53965 -0.562159,-30.54774 -0.108486,-4.1053 -0.218743,-8.210595 -0.328747,-12.314377 -0.03288,-1.416144 -0.02478,-2.832035 -0.01492,-4.383724 v -0.90532 l 1.678383,-0.145661 c 2.06934,-0.18334 3.913614,-0.346955 5.753084,-0.481236 3.754301,-0.271596 7.511891,-0.51234 11.269471,-0.754602 9.00921,-0.579355 18.32768,-1.176917 27.46181,-2.201598 4.97168,-0.623609 9.71829,-2.414525 13.85798,-5.225064 1.34028,-0.777615 2.44285,-1.905472 3.18885,-3.260671 0.74348,-1.357222 1.10257,-2.889187 1.03429,-4.432783 -0.25794,-1.587851 -0.94578,-3.075814 -1.99271,-4.30179 -1.04441,-1.226229 -2.40492,-2.146216 -3.93739,-2.658557 -3.57323,-1.533734 -7.44234,-2.263807 -11.33168,-2.139388 -7.44841,0.374772 -14.99165,1.027968 -22.28808,1.66144 -3.78894,0.327483 -7.57763,0.654713 -11.36809,0.949575 -3.57678,0.274883 -7.099438,0.464798 -10.827436,0.654713 l -3.451851,0.186628 c -0.07056,-0.54193 -0.141367,-1.060846 -0.208634,-1.561806 -0.249848,-1.85616 -0.466822,-3.458679 -0.544204,-5.03338 C 89.584769,49.375511 89.098222,39.017684 88.639746,28.658086 L 88.103887,16.9529 C 88.071012,16.240782 88.04623,15.530687 88.0217,14.825144 87.957468,13.024618 87.891719,11.166182 87.692953,9.3198849 87.612283,7.5277044 86.887521,5.8240329 85.64966,4.5199163 84.412051,3.2160525 82.7453,2.3984824 80.953626,2.2156481 79.027164,1.7857473 77.010171,2.1081729 75.315603,3.1164167 c -1.69482,1.0084966 -2.935716,2.626188 -3.468287,4.5192687 -0.902539,2.5166896 -1.43511,5.1497056 -1.581277,7.8176196 -0.590228,14.125022 -1.051992,28.482697 -1.499089,42.37532 l -0.06904,2.105249 c -0.06575,2.078697 -0.04931,4.159416 -0.03136,6.357727 0,0.608942 0.0099,1.225976 0.01315,1.859447 -0.588459,0.09989 -1.15871,0.203065 -1.716063,0.302954 -1.788387,0.368197 -3.601304,0.615264 -5.424337,0.738165 -12.36571,0.505765 -24.94486,0.942747 -37.108523,1.366831 L 12.68614,70.969933 c -0.473396,0.01618 -0.973093,-0.01644 -1.469502,-0.04425 -1.4275231,-0.206352 -2.8846338,-0.02959 -4.2211195,0.510571 -4.0516884,2.046327 -5.9371826,3.815748 -6.1129362,5.74398 -0.0697956,1.614151 0.2470665,3.221474 0.9245396,4.689964 0.677473,1.468238 1.6955792,2.756423 2.9711201,3.755057 z"
       fill="#000000"
       id="path2"
       style="stroke-width:2.52883" />
  </g>
  <defs
     id="defs2">
    <clipPath
       id="clip0">
      <rect
         width="156"
         height="156"
         fill="#ffffff"
         transform="translate(0.777344)"
         id="rect2"
         x="0"
         y="0" />
    </clipPath>
  </defs>
</svg>
