<svg xmlns="http://www.w3.org/2000/svg" viewBox="0 0 100 100" width="100" height="100">
  <circle cx="50" cy="52" r="38" fill="#f97316" opacity="0.15"/>
  <path d="M50 18c-1.5 0-2.7 1.2-2.7 2.7v12c0 1.5 1.2 2.7 2.7 2.7s2.7-1.2 2.7-2.7v-12c0-1.5-1.2-2.7-2.7-2.7z" fill="#f97316"/>
  <path d="M38 22c-1.5 0-2.7 1.2-2.7 2.7v8c0 1.5 1.2 2.7 2.7 2.7s2.7-1.2 2.7-2.7v-8c0-1.5-1.2-2.7-2.7-2.7z" fill="#f97316"/>
  <path d="M62 22c-1.5 0-2.7 1.2-2.7 2.7v8c0 1.5 1.2 2.7 2.7 2.7s2.7-1.2 2.7-2.7v-8c0-1.5-1.2-2.7-2.7-2.7z" fill="#f97316"/>
  <path d="M28 42c0-2 1.5-3.5 3.5-3.5h37c2 0 3.5 1.5 3.5 3.5v4c0 16.5-9.5 30-20 33v5h8c1.5 0 2.7 1.2 2.7 2.7s-1.2 2.7-2.7 2.7H39c-1.5 0-2.7-1.2-2.7-2.7s1.2-2.7 2.7-2.7h8v-5c-10.5-3-20-16.5-20-33v-4z" fill="#f97316"/>
</svg>
